<?xml version="1.0" encoding="UTF-8" ?>
<!DOCTYPE svg PUBLIC "-//W3C//DTD SVG 1.1//EN" "http://www.w3.org/Graphics/SVG/1.1/DTD/svg11.dtd">
<svg width="1920pt" height="1080pt" viewBox="0 0 1920 1080" version="1.1" xmlns="http://www.w3.org/2000/svg">
<g id="#444444ff">
<path fill="#444444" opacity="1.00" d=" M 0.00 0.00 L 204.75 0.00 C 215.35 26.47 226.61 52.68 236.74 79.33 C 253.60 121.65 270.46 163.98 286.24 206.72 C 306.58 259.87 325.91 313.40 345.01 367.01 C 357.65 403.15 370.44 439.25 382.38 475.64 C 389.69 497.67 397.05 519.68 404.40 541.70 C 406.78 549.80 409.33 557.86 412.11 565.84 C 455.33 701.01 494.85 837.40 528.78 975.21 C 534.76 999.57 540.63 1023.96 546.52 1048.35 C 548.65 1058.56 551.59 1068.61 553.25 1078.93 C 500.83 1079.29 448.41 1078.98 396.00 1079.07 C 264.00 1079.02 132.00 1079.20 0.00 1078.99 L 0.00 0.00 Z" />
</g>
<g id="#424242ff">
<path fill="#424242" opacity="1.00" d=" M 204.75 0.00 L 789.82 0.00 C 784.02 22.71 779.14 45.64 773.40 68.36 C 770.04 81.96 766.62 95.54 763.19 109.12 C 759.35 127.11 754.39 144.82 749.60 162.57 C 742.41 190.77 734.78 218.85 726.95 246.87 C 727.95 247.12 729.25 247.06 729.70 248.24 C 745.30 274.63 761.45 300.71 776.74 327.28 C 794.00 358.08 811.24 388.87 827.99 419.95 C 836.38 436.76 845.80 453.04 853.97 469.97 C 862.38 486.90 870.99 503.73 879.29 520.71 C 884.66 533.38 891.64 545.29 897.10 557.92 C 917.98 602.74 938.87 647.59 957.63 693.36 C 964.68 710.07 971.62 726.83 978.29 743.70 C 986.60 763.37 994.29 783.30 1001.75 803.31 C 1010.97 826.73 1019.29 850.48 1027.77 874.17 C 1034.57 892.12 1040.20 910.49 1046.40 928.65 C 1049.04 937.47 1052.79 945.91 1055.22 954.79 C 1061.99 976.40 1068.99 997.94 1075.48 1019.64 C 1080.99 1039.42 1087.01 1059.07 1092.23 1078.94 C 912.57 1079.01 732.91 1079.04 553.25 1078.93 C 551.59 1068.61 548.65 1058.56 546.52 1048.35 C 540.63 1023.96 534.76 999.57 528.78 975.21 C 494.85 837.40 455.33 701.01 412.11 565.84 C 409.33 557.86 406.78 549.80 404.40 541.70 C 397.05 519.68 389.69 497.67 382.38 475.64 C 370.44 439.25 357.65 403.15 345.01 367.01 C 325.91 313.40 306.58 259.87 286.24 206.72 C 270.46 163.98 253.60 121.65 236.74 79.33 C 226.61 52.68 215.35 26.47 204.75 0.00 Z" />
</g>
<g id="#3e3e3eff">
<path fill="#3e3e3e" opacity="1.00" d=" M 789.82 0.00 L 1202.95 0.00 C 1225.01 35.25 1246.17 71.06 1266.81 107.17 C 1282.01 133.24 1296.24 159.86 1310.68 186.36 C 1318.74 202.76 1328.10 218.48 1335.99 234.97 C 1339.93 243.53 1344.99 251.52 1349.04 260.02 C 1353.53 269.16 1358.12 278.25 1362.67 287.36 C 1366.63 294.87 1369.66 302.83 1373.66 310.34 C 1391.21 345.88 1407.42 382.08 1423.85 418.16 C 1440.46 455.54 1456.76 493.07 1471.84 531.09 C 1486.49 565.94 1499.67 601.39 1513.39 636.61 C 1517.56 647.76 1521.63 658.94 1525.66 670.14 C 1535.67 697.70 1545.69 725.26 1554.89 753.10 C 1562.63 774.14 1569.17 795.59 1576.14 816.89 C 1604.14 903.33 1629.47 990.66 1651.73 1078.74 C 1641.52 1079.39 1631.27 1078.85 1621.05 1079.00 C 1444.77 1078.95 1268.50 1079.08 1092.23 1078.94 C 1087.01 1059.07 1080.99 1039.42 1075.48 1019.64 C 1068.99 997.94 1061.99 976.40 1055.22 954.79 C 1052.79 945.91 1049.04 937.47 1046.40 928.65 C 1040.20 910.49 1034.57 892.12 1027.77 874.17 C 1019.29 850.48 1010.97 826.73 1001.75 803.31 C 994.29 783.30 986.60 763.37 978.29 743.70 C 971.62 726.83 964.68 710.07 957.63 693.36 C 938.87 647.59 917.98 602.74 897.10 557.92 C 891.64 545.29 884.66 533.38 879.29 520.71 C 870.99 503.73 862.38 486.90 853.97 469.97 C 845.80 453.04 836.38 436.76 827.99 419.95 C 811.24 388.87 794.00 358.08 776.74 327.28 C 761.45 300.71 745.30 274.63 729.70 248.24 C 729.25 247.06 727.95 247.12 726.95 246.87 C 734.78 218.85 742.41 190.77 749.60 162.57 C 754.39 144.82 759.35 127.11 763.19 109.12 C 766.62 95.54 770.04 81.96 773.40 68.36 C 779.14 45.64 784.02 22.71 789.82 0.00 Z" />
</g>
<g id="#3c3c3dff">
<path fill="#3c3c3d" opacity="1.00" d=" M 1202.95 0.00 L 1713.23 0.00 C 1705.65 46.95 1695.82 93.49 1686.10 140.03 C 1658.15 266.96 1623.05 392.30 1581.31 515.38 C 1574.16 535.30 1567.62 555.43 1560.33 575.30 C 1551.50 599.94 1542.25 624.42 1532.93 648.88 C 1530.55 655.98 1527.04 662.73 1525.66 670.14 C 1521.63 658.94 1517.56 647.76 1513.39 636.61 C 1499.67 601.39 1486.49 565.94 1471.84 531.09 C 1456.76 493.07 1440.46 455.54 1423.85 418.16 C 1407.42 382.08 1391.21 345.88 1373.66 310.34 C 1369.66 302.83 1366.63 294.87 1362.67 287.36 C 1358.12 278.25 1353.53 269.16 1349.04 260.02 C 1344.99 251.52 1339.93 243.53 1335.99 234.97 C 1328.10 218.48 1318.74 202.76 1310.68 186.36 C 1296.24 159.86 1282.01 133.24 1266.81 107.17 C 1246.17 71.06 1225.01 35.25 1202.95 0.00 Z" />
</g>
<g id="#3a3a3bff">
<path fill="#3a3a3b" opacity="1.00" d=" M 1713.23 0.00 L 1920.00 0.00 L 1920.00 1080.00 L 0.00 1080.00 L 0.00 1078.99 C 132.00 1079.20 264.00 1079.02 396.00 1079.07 C 448.41 1078.98 500.83 1079.29 553.25 1078.93 C 732.91 1079.04 912.57 1079.01 1092.23 1078.94 C 1268.50 1079.08 1444.77 1078.95 1621.05 1079.00 C 1631.27 1078.85 1641.52 1079.39 1651.73 1078.74 C 1629.47 990.66 1604.14 903.33 1576.14 816.89 C 1569.17 795.59 1562.63 774.14 1554.89 753.10 C 1545.69 725.26 1535.67 697.70 1525.66 670.14 C 1527.04 662.73 1530.55 655.98 1532.93 648.88 C 1542.25 624.42 1551.50 599.94 1560.33 575.30 C 1567.62 555.43 1574.16 535.30 1581.31 515.38 C 1623.05 392.30 1658.15 266.96 1686.10 140.03 C 1695.82 93.49 1705.65 46.95 1713.23 0.00 Z" />
</g>
</svg>
